<svg xmlns="http://www.w3.org/2000/svg" viewBox="0 0 256 256" width="256" height="256">
  <defs><linearGradient id="blade" x1="0" y1="0" x2="1" y2="1"><stop stop-color="#f3e7c0"/><stop offset=".44" stop-color="#b7c4b6"/><stop offset="1" stop-color="#4d6665"/></linearGradient><linearGradient id="wood" x1="0" y1="0" x2="1" y2="1"><stop stop-color="#ba7149"/><stop offset="1" stop-color="#3b2426"/></linearGradient></defs>
  <path d="M43 178c18-14 35-25 57-33l99-83c10-8 24 4 16 15l-78 103c-12 16-31 27-52 33z" fill="url(#blade)" stroke="#24232a" stroke-width="9" stroke-linejoin="round"/>
  <path d="M144 87c18 20 33 31 54 39l-26 38c-19-8-36-21-53-42z" fill="url(#wood)" stroke="#2b2022" stroke-width="8"/>
  <path d="M63 176c20-3 44-17 61-34" stroke="#fff4ca" stroke-width="7" opacity=".7" stroke-linecap="round"/>
  <path d="M49 207c21-14 48-19 73-17" fill="none" stroke="#c38d54" stroke-width="8" stroke-linecap="round"/>
  <path d="M181 53l18-18M190 70l24-5" stroke="#9a6b48" stroke-width="6" stroke-linecap="round"/>
</svg>
